<svg width="32" height="32" viewBox="0 0 32 32" fill="none" xmlns="http://www.w3.org/2000/svg">
<circle cx="16" cy="16" r="16" fill="white"/>
<path fill-rule="evenodd" clip-rule="evenodd" d="M9.09574 16.5564C9.00389 16.5002 8.97294 16.3815 9.02571 16.2877L15.6802 4.4575C15.7811 4.27812 16.0545 4.34975 16.0545 4.55556V20.4523C16.0545 20.6085 15.8835 20.7044 15.7502 20.623L9.09574 16.5564ZM9.46961 18.8165C9.34656 18.6388 9.55387 18.4193 9.73834 18.532L15.9588 22.3334C16.0182 22.3698 16.0545 22.4344 16.0545 22.5041V27.6878C16.0545 27.8839 15.8017 27.9628 15.6901 27.8016L9.46961 18.8165ZM23.0133 16.5564C23.1051 16.5002 23.1361 16.3815 23.0833 16.2877L16.4288 4.4575C16.3279 4.27812 16.0545 4.34975 16.0545 4.55556V20.4523C16.0545 20.6085 16.2255 20.7044 16.3588 20.623L23.0133 16.5564ZM22.6394 18.8165C22.7625 18.6388 22.5551 18.4193 22.3707 18.532L16.1502 22.3334C16.0908 22.3698 16.0545 22.4344 16.0545 22.5041V27.6878C16.0545 27.8839 16.3073 27.9628 16.4189 27.8016L22.6394 18.8165Z" fill="#EB5289"/>
</svg>
